<?xml version="1.0" encoding="utf-8"?>
<svg width="1242px" height="2436px" viewBox="0 0 1242 2436" xmlns="http://www.w3.org/2000/svg">
  <defs>
    <clipPath id="clip-path">
      <path class="cls-1" d="M59.19,65.72h0Zm-28-62.47c-1.88,0-2.88.68-4.91,2.77L3.53,33a2.62,2.62,0,0,0,0,3.4L26.81,63.6a6.16,6.16,0,0,0,4.56,2.12H59.19a6.13,6.13,0,0,1-2.64-.83,8.28,8.28,0,0,1-1.41-1.1s-1.06-1-2.56-2.6C46.81,54.9,30.52,35.13,30.52,35.13a1.45,1.45,0,0,1,0-1.88L52.43,7.59c.83-.88,1.52-1.7,2.14-2.33a5.74,5.74,0,0,1,3.82-2c.12,0,0,0,0,0Z" style="fill: none;"/>
    </clipPath>
    <linearGradient id="linear-gradient" x1="-2233.82" y1="-862.41" x2="-2233.39" y2="-862.41" gradientTransform="matrix(0, -144.16, -144.16, 0, -124293.81, -321959.78)" gradientUnits="userSpaceOnUse">
      <stop offset="0.01" stop-color="#abb1b6"/>
      <stop offset="0.2" stop-color="#c1c7cc"/>
      <stop offset="0.48" stop-color="#d4d4d4"/>
      <stop offset="0.51" stop-color="#e3e3e3"/>
      <stop offset="0.54" stop-color="#fff"/>
    </linearGradient>
  </defs>
  <rect x="-10.421" y="-2.449" width="1264.201" height="2438.588" style="fill: rgb(93, 3, 234);"/>
  <g transform="matrix(2.077658, 0, 0, 2.077658, 580.190002, 601.574402)">
    <g id="Layer_1" data-name="Layer 1" transform="matrix(1, 0, 0, 1, -184.967667, 262.203156)">
      <path class="cls-3" d="M35.38,63.79s1.07-1,2.56-2.6C43.71,54.9,60,35.13,60,35.13a1.45,1.45,0,0,0,0-1.88L38.09,7.59c-.82-.88-1.55-1.67-2.14-2.33a9.94,9.94,0,0,0-1.57-1.39,5.6,5.6,0,0,0-2.24-.61c-.13,0,0,0,0,0H56.5c1.86,0,3.54-.13,5.24.75a8.36,8.36,0,0,1,2.47,2L87,33a2.62,2.62,0,0,1,0,3.4C81.17,43.21,63.71,63.6,63.71,63.6a6.15,6.15,0,0,1-4.55,2.12H31.27A6.05,6.05,0,0,0,34,64.89a8.09,8.09,0,0,0,1.4-1.1" style="fill: rgb(117, 231, 228);"/>
      <path class="cls-4" d="M47.9,19.08a46.81,46.81,0,0,1,5.59-7c2.75-2.78,5.61-7.24,10.09-6.77-.11,0-.38-.35-.47-.42A7.35,7.35,0,0,0,62,4.11a6.79,6.79,0,0,0-3.44-.86H56.23L42.68,13Z" style="fill: rgb(46, 177, 174);"/>
      <g class="cls-5" style="clip-path: url(#clip-path);">
        <rect class="cls-6" x="2.7" y="3.25" width="56.56" height="62.48" style="fill: url(#linear-gradient);"/>
      </g>
      <path class="cls-7" d="M238.52,38.91c2.81-1.7,6.79-5.75,6.79-10.51,0-9.55-8.26-15.27-26.19-12.06v37.1h8.45v-13a32,32,0,0,0,3.27,0l11,13h8.72Zm-11-5.17V23.65c6.1-.91,9,1.39,9,4.59C236.59,31.93,234.29,34.28,227.57,33.74Z" style="fill: rgb(255, 255, 255);"/>
      <path class="cls-7" d="M139.39,53.44c8,0,12.42-3.85,14.42-6.24l-5.2-5.57a12,12,0,0,1-8.6,3.95c-7,0-10.61-5.46-10.61-11.35,0-6.09,4.38-11.08,10.46-11.08a12,12,0,0,1,8.75,4.11l5.2-6.2a19,19,0,0,0-14.11-5.62c-9.89,0-19.42,7.29-19.42,18.85A18.78,18.78,0,0,0,139.39,53.44Z" style="fill: rgb(255, 255, 255);"/>
      <polygon class="cls-7" points="178.59 53.44 178.59 38.07 194.58 38.07 194.58 53.44 203.35 53.44 203.35 15.44 194.58 15.44 194.58 30.49 178.59 30.49 178.59 15.44 169.82 15.44 169.82 53.44 178.59 53.44" style="fill: rgb(255, 255, 255);"/>
      <path class="cls-7" d="M277.63,23.15c-5.3,0-10.34,4.21-10.34,11.29s5,11.14,10.34,11.14S288,41.52,288,34.44,282.88,23.15,277.63,23.15Zm0-7.71c11.48,0,19.59,8.64,19.59,19s-8.11,19-19.59,19-19.53-8.69-19.53-19S266.1,15.44,277.63,15.44Z" style="fill: rgb(255, 255, 255);"/>
      <path class="cls-7" d="M386.28,15.44l20.24,38H396.9c-8-15.23-13.17-25.17-13.27-25.35,0,0-5.17,9.94-13.26,25.35H360.7l20.4-38Z" style="fill: rgb(255, 255, 255);"/>
      <path class="cls-7" d="M319.12,53.44V32.77l9.05,10.61h.57l9.05-10.61V53.44h8.52V16a.82.82,0,0,0-.85-.51h-5.19L328.48,30,316.23,15.44h-4.65a1.39,1.39,0,0,0-1,.51V53.44Z" style="fill: rgb(255, 255, 255);"/>
    </g>
  </g>
</svg>